<svg width="19" height="16" viewBox="0 0 19 16" fill="none" xmlns="http://www.w3.org/2000/svg">
<path d="M9.64141 0.13916C7.4926 0.13916 5.06105 0.944716 4.55212 3.55583C4.49558 3.8336 4.72177 3.97249 4.89141 4.02805L7.09677 4.25027C7.29468 4.25027 7.46433 4.05583 7.4926 3.8336C7.69052 2.94472 8.45391 2.50027 9.3304 2.50027C9.78278 2.50027 10.32 2.66694 10.6027 3.0836C10.9137 3.52805 10.8855 4.16694 10.8855 4.69472V4.97249C9.58486 5.11138 7.86016 5.22249 6.61611 5.75027C5.20242 6.36138 4.21284 7.5836 4.21284 9.38916C4.21284 11.6947 5.68308 12.8614 7.6057 12.8614C9.2173 12.8614 10.0938 12.5003 11.3378 11.2503C11.7619 11.8336 11.9033 12.1114 12.6384 12.7225C12.8081 12.8058 13.006 12.8058 13.1756 12.6669C13.628 12.278 14.448 11.5836 14.9003 11.1947C15.0983 11.0558 15.0417 10.8058 14.9003 10.5836C14.4762 10.028 14.0521 9.55583 14.0521 8.52805V5.0836C14.0521 3.61138 14.1652 2.25027 13.0625 1.25027C12.1861 0.416938 10.7441 0.13916 9.64141 0.13916ZM10.8572 6.77805V7.25027C10.8572 8.11138 10.8855 8.8336 10.4331 9.61138C10.0655 10.2503 9.50004 10.6114 8.84974 10.6114C7.97326 10.6114 7.46433 9.97249 7.46433 9.00027C7.4926 7.11138 9.2173 6.77805 10.8572 6.77805ZM17.3319 11.778C16.6816 11.778 15.9182 11.9169 15.3527 12.3336C15.1831 12.4447 15.2114 12.6392 15.4093 12.6114C16.0596 12.528 17.5015 12.3614 17.756 12.6947C18.0105 13.028 17.4733 14.3336 17.2188 14.9447C17.134 15.1392 17.3036 15.1947 17.4733 15.0558C18.5477 14.1669 18.8304 12.3058 18.6042 12.0558C18.5194 11.9169 17.9822 11.778 17.3319 11.778ZM0.424147 12.1392C0.311051 12.1669 0.254504 12.3058 0.395873 12.4447C2.79915 14.5836 5.96581 15.8614 9.50004 15.8614C12.0164 15.8614 14.9286 15.0836 16.9361 13.6114C17.2753 13.3614 16.9926 13.0003 16.6533 13.1392C14.3914 14.0836 11.9316 14.528 9.69796 14.528C6.38992 14.528 3.19498 13.6392 0.59379 12.1669C0.565516 12.1392 0.508968 12.1392 0.480695 12.1392H0.424147Z" fill="black"/>
</svg>
