<svg width="17" height="16" viewBox="0 0 17 16" fill="none" xmlns="http://www.w3.org/2000/svg">
<g clip-path="url(#clip0)">
<path d="M11.7971 6.32112L13.0238 4.20112C13.1305 3.99446 13.0505 3.74112 12.8505 3.63446C12.6571 3.53446 12.4171 3.59446 12.2971 3.78112L11.0438 5.94112C9.13713 5.13446 6.99047 5.13446 5.0838 5.94112L3.83047 3.78112C3.7038 3.58779 3.4438 3.52779 3.25047 3.64779C3.0638 3.76779 3.0038 4.00779 3.1038 4.20112L4.33047 6.32112C2.2638 7.50112 0.917135 9.62779 0.730469 12.0011H15.3971C15.2105 9.62779 13.8638 7.50112 11.7971 6.32112ZM4.73047 10.1678C4.27047 10.1678 3.89714 9.79446 3.89714 9.33446C3.89714 8.87446 4.27047 8.50112 4.73047 8.50112C5.19047 8.50112 5.5638 8.87446 5.5638 9.33446C5.5638 9.79446 5.19047 10.1678 4.73047 10.1678ZM11.3971 10.1678C10.9371 10.1678 10.5638 9.79446 10.5638 9.33446C10.5638 8.87446 10.9371 8.50112 11.3971 8.50112C11.8571 8.50112 12.2305 8.87446 12.2305 9.33446C12.2305 9.79446 11.8571 10.1678 11.3971 10.1678Z" fill="black"/>
</g>
<defs>
<clipPath id="clip0">
<rect width="16" height="16" fill="white" transform="translate(0.0625)"/>
</clipPath>
</defs>
</svg>
