<svg width="15" height="19" viewBox="0 0 15 19" fill="none" xmlns="http://www.w3.org/2000/svg">
<g clip-path="url(#clip0)">
<path d="M14.6856 14.8069C14.4163 15.4707 14.0975 16.0817 13.7282 16.6434C13.2248 17.4092 12.8125 17.9393 12.4949 18.2337C12.0024 18.7169 11.4748 18.9643 10.9098 18.9784C10.5042 18.9784 10.015 18.8553 9.44562 18.6055C8.87436 18.3568 8.34937 18.2337 7.86934 18.2337C7.36589 18.2337 6.82595 18.3568 6.24842 18.6055C5.67001 18.8553 5.20405 18.9855 4.84779 18.9984C4.30598 19.023 3.76594 18.7685 3.22688 18.2337C2.88282 17.9135 2.45248 17.3647 1.93694 16.5871C1.38381 15.7568 0.929063 14.794 0.572805 13.6962C0.191265 12.5106 0 11.3624 0 10.2509C0 8.9776 0.257878 7.87941 0.774402 6.95914C1.18035 6.21994 1.72039 5.63684 2.39631 5.20878C3.07222 4.78071 3.80254 4.56258 4.58904 4.54862C5.01938 4.54862 5.58372 4.69064 6.28503 4.96976C6.98435 5.24982 7.43338 5.39185 7.63026 5.39185C7.77744 5.39185 8.27627 5.22578 9.1219 4.89471C9.92159 4.58767 10.5965 4.46055 11.1494 4.51062C12.6477 4.63963 13.7733 5.26976 14.5218 6.405C13.1819 7.27121 12.519 8.48445 12.5322 10.0408C12.5443 11.2531 12.9565 12.2619 13.7667 13.063C14.1338 13.4347 14.5438 13.722 15 13.9261C14.9011 14.2322 14.7966 14.5254 14.6856 14.8069ZM11.2494 0.380586C11.2494 1.33078 10.9241 2.21797 10.2755 3.03914C9.49289 4.01536 8.54624 4.57946 7.51967 4.49045C7.50659 4.37646 7.49901 4.25648 7.49901 4.13041C7.49901 3.21823 7.8712 2.24201 8.53217 1.44382C8.86215 1.03968 9.28184 0.70365 9.79078 0.435589C10.2986 0.171527 10.779 0.0254956 11.2308 0.000488281C11.244 0.127514 11.2494 0.254548 11.2494 0.380574V0.380586Z" fill="black"/>
</g>
<defs>
<clipPath id="clip0">
<rect width="15" height="19" fill="white"/>
</clipPath>
</defs>
</svg>
