<?xml version="1.0" encoding="utf-8"?>
<svg xmlns="http://www.w3.org/2000/svg" xmlns:xlink="http://www.w3.org/1999/xlink" style="margin: auto; background: rgba(39, 39, 39, 0); display: block; shape-rendering: auto; animation-play-state: running; animation-delay: 0s;" width="111px" height="111px" viewBox="0 0 100 100" preserveAspectRatio="xMidYMid">
<g transform="translate(50 50)" style="animation-play-state: running; animation-delay: 0s;">
<g style="animation-play-state: running; animation-delay: 0s;">
<animateTransform attributeName="transform" type="rotate" values="0;40" keyTimes="0;1" dur="0.7575757575757576s" repeatCount="indefinite" style="animation-play-state: running; animation-delay: 0s;"></animateTransform><path d="M31.682013824881775 -4.5 L39.68201382488178 -4.5 L39.68201382488178 4.5 L31.682013824881775 4.5 A32 32 0 0 1 27.16237488095875 16.917605942516246 L27.16237488095875 16.917605942516246 L33.290730425910574 22.05990682000856 L27.50564193873172 28.954306808079362 L21.377286393779897 23.81200593058705 A32 32 0 0 1 9.933158854064153 30.419276046282345 L9.933158854064153 30.419276046282345 L11.322344275399598 38.29773807038001 L2.4590744982897235 39.86057166938238 L1.0698890769542801 31.98210964528472 A32 32 0 0 1 -11.943892595410906 29.68742881539741 L-11.943892595410906 29.68742881539741 L-15.943892595410905 36.615632045672925 L-23.738121229470856 32.115632045672925 L-19.738121229470856 25.18742881539741 A32 32 0 0 1 -28.232263957913027 15.064503702768477 L-28.232263957913027 15.064503702768477 L-35.74980492420029 17.800664849373828 L-38.827986214131315 9.343431262300651 L-31.310445247844047 6.6072701156953 A32 32 0 0 1 -31.310445247844047 -6.607270115695292 L-31.310445247844047 -6.607270115695292 L-38.827986214131315 -9.34343126230064 L-35.7498049242003 -17.800664849373817 L-28.23226395791303 -15.06450370276847 A32 32 0 0 1 -19.738121229470874 -25.1874288153974 L-19.738121229470874 -25.1874288153974 L-23.738121229470877 -32.11563204567291 L-15.94389259541093 -36.61563204567291 L-11.943892595410928 -29.687428815397404 A32 32 0 0 1 1.069889076954265 -31.98210964528472 L1.069889076954265 -31.98210964528472 L2.459074498289705 -39.86057166938238 L11.32234427539958 -38.29773807038002 L9.93315885406414 -30.419276046282352 A32 32 0 0 1 21.37728639377989 -23.81200593058706 L21.37728639377989 -23.81200593058706 L27.505641938731713 -28.954306808079377 L33.29073042591057 -22.059906820008575 L27.162374880958744 -16.917605942516257 A32 32 0 0 1 31.682013824881775 -4.500000000000008 M0 -44A44 44 0 1 0 0 44 A44 44 0 1 0 0 -44" fill="#aaaaaa" style="animation-play-state: running; animation-delay: 0s;"></path></g></g>
<!-- [ldio] generated by https://loading.io/ --></svg>
