<?xml version="1.0" encoding="UTF-8" standalone="no"?>
<svg width="30px" height="30px" viewBox="0 0 30 30" version="1.1" xmlns="http://www.w3.org/2000/svg" xmlns:xlink="http://www.w3.org/1999/xlink">
    <!-- Generator: Sketch 46.1 (44463) - http://www.bohemiancoding.com/sketch -->
    <title>Artboard</title>
    <desc>Created with Sketch.</desc>
    <defs></defs>
    <g id="Page-1" stroke="none" stroke-width="1" fill="none" fill-rule="evenodd">
        <g id="Artboard">
            <g id="Group-24">
                <rect id="Rectangle-16" fill="#000000" x="0" y="0" width="30" height="30"></rect>
                <g id="Group-15" transform="translate(7.000000, 7.000000)">
                    <path d="M8,2.22684384 L3.75519932,6 L1,6 L1,10 L3.75519932,10 L8,13.7731562 L8,2.22684384 Z M14,7.29289322 L11.3535534,4.64644661 L10.6464466,5.35355339 L13.2928932,8 L10.6464466,10.6464466 L11.3535534,11.3535534 L14,8.70710678 L16.6464466,11.3535534 L17.3535534,10.6464466 L14.7071068,8 L17.3535534,5.35355339 L16.6464466,4.64644661 L14,7.29289322 Z M9,1.32824718e-15 L9,16 L3.375,11 L0,11 L0,5 L3.375,5 L9,1.32824718e-15 Z" id="Combined-Shape" fill="#FFFFFF" fill-rule="nonzero"></path>
                    <g id="Group-14" transform="translate(10.000000, 4.000000)"></g>
                </g>
            </g>
        </g>
    </g>
</svg>