<?xml version="1.0" encoding="utf-8"?>
<!DOCTYPE svg PUBLIC "-//W3C//DTD SVG 1.1//EN" "http://www.w3.org/Graphics/SVG/1.1/DTD/svg11.dtd">
<svg version="1.1" xmlns="http://www.w3.org/2000/svg" xmlns:xlink="http://www.w3.org/1999/xlink" width="1024" height="1024" viewBox="0 0 1024 1024">
<path fill="#fff" d="M512 68q92 0 172.5 35t141.5 95q60 61 95 141.5t35 172.5-35 172.5-95 141.5q-61 60-141.5 95t-172.5 35-172.5-35-141.5-95q-60-61-95-141.5t-35-172.5 35-172.5 95-141.5q61-60 141.5-95t172.5-35v0zM512 0q-106 0-199 40.5t-163 109.5q-69 70-109.5 163t-40.5 199 40.5 199 109.5 163q70 69 163 109.5t199 40.5 199-40.5 163-109.5q69-70 109.5-163t40.5-199-40.5-199-109.5-163q-70-69-163-109.5t-199-40.5v0 0zM384 656v-256l256 128z"></path>
</svg>
