<svg width="17" height="16" viewBox="0 0 17 16" fill="none" xmlns="http://www.w3.org/2000/svg">
<path d="M0 0H6.42278C9.04352 1.63777e-05 11.0622 0.417748 12.4789 1.25321C13.8955 2.08869 14.6039 3.28732 14.6039 4.84911C14.6039 5.66124 14.2949 6.43428 13.677 7.16822C13.059 7.90218 12.2494 8.44884 11.2482 8.80819L17 14.7818L11.6636 16L5.20864 8.64448V15.531L0 16V7.05145e-08V0ZM9.13975 5.36455C9.13975 4.75547 8.83075 4.26351 8.21282 3.88865C7.59486 3.51382 6.85967 3.3264 6.00736 3.32639L5.20864 3.37358V7.63719L6.16729 7.73084C6.99818 7.73085 7.70132 7.49649 8.2767 7.02774C8.85205 6.55902 9.13975 6.00463 9.13975 5.36455Z" fill="black"/>
</svg>
