<svg width="16" height="16" viewBox="0 0 16 16" fill="none" xmlns="http://www.w3.org/2000/svg">
<path d="M8.01562 6.43359L7.96094 6.40625L7.85547 7.98047L8.01562 8.09766L8.14453 8.02734L8.09375 6.40625L8.01562 6.43359Z" fill="black"/>
<path fill-rule="evenodd" clip-rule="evenodd" d="M3.75348 12.8187C3.34547 12.54 2.93746 12.2612 2.5296 11.9822C2.52462 11.9788 2.52118 11.9733 2.51702 11.9687C2.51348 11.9635 2.50995 11.9584 2.50642 11.9532C2.50558 11.9321 2.50398 11.911 2.50398 11.8898C2.50388 9.07882 2.50388 6.26785 2.50398 3.45681C2.50398 3.43568 2.50558 3.41455 2.50642 3.39341C2.52058 3.38391 2.51709 3.36907 2.51795 3.35557C3.02641 3.6404 3.53525 3.92466 4.04327 4.21033C4.63398 4.54248 5.22363 4.87649 5.81439 5.20864C6.40345 5.53979 6.99308 5.86998 7.58293 6.19969C7.72426 6.27873 7.86203 6.36431 8.00907 6.43294L8.00851 6.43812C8.00816 6.96876 8.00777 7.49941 8.00761 8.03005C8.00761 8.0486 8.00365 8.06897 8.02235 8.08259C8.02195 8.08659 8.0206 8.09021 8.01832 8.09354C8.01474 8.09289 8.01114 8.093 8.00756 8.09377C8.00468 8.09254 8.00184 8.09259 7.99903 8.09407C7.98887 8.0867 7.97929 8.07836 7.96843 8.07224C6.86214 7.44775 5.75592 6.82325 4.64935 6.19929C4.36493 6.03895 4.07951 5.8804 3.79456 5.72101C3.78972 5.71738 3.78491 5.71375 3.7801 5.71013C3.72925 5.70399 3.75452 5.74435 3.75452 5.75981C3.75392 7.83911 3.75492 9.91841 3.75555 11.9977C3.75562 12.2714 3.7542 12.545 3.75348 12.8187Z" fill="black"/>
<path fill-rule="evenodd" clip-rule="evenodd" d="M8.02717 8.0833C8.00848 8.06968 8.01243 8.04932 8.01243 8.03076C8.01259 7.50012 8.01299 6.96948 8.01331 6.43884C8.52865 6.14942 9.04387 5.85982 9.55926 5.57056C10.137 5.24627 10.7152 4.92273 11.2928 4.59809C11.9531 4.22693 12.6132 3.85544 13.2724 3.48233C13.3429 3.44239 13.4217 3.41454 13.4799 3.35433C13.4886 3.35205 13.4973 3.34986 13.5059 3.34766L13.51 3.34777C13.5212 3.38085 13.5155 3.41515 13.5155 3.44872C13.5158 6.26403 13.5155 9.04105 13.5167 11.8563C13.5168 11.909 13.5013 11.956 13.4575 11.9857C13.0709 12.2479 12.6863 12.4959 12.301 12.7601C12.2941 12.7648 12.2861 12.768 12.2786 12.7718C12.2581 12.7507 12.2659 12.7241 12.2658 12.6995C12.2647 12.438 12.2643 12.2148 12.2636 11.9532C12.2625 11.6598 12.2614 11.3664 12.2602 11.073C12.2612 11.0625 12.263 11.052 12.263 11.0415C12.263 9.28208 12.263 7.52267 12.2625 5.76322C12.2625 5.74511 12.2689 5.72537 12.2555 5.70798C12.2323 5.70726 12.2167 5.72316 12.199 5.73309C11.1225 6.34015 10.0464 6.94781 8.9699 7.5548C8.65612 7.73181 8.34143 7.9072 8.02717 8.0833Z" fill="black"/>
<path fill-rule="evenodd" clip-rule="evenodd" d="M7.94086 0.207031L13.5156 3.36858V3.55951H8.10256L8.10204 8.1097L13.5 11.8243V12.0138L7.94027 15.7059L2.52514 12.055V11.8247L7.77985 8.14282L7.78037 3.55951H2.51562V3.33064L7.94086 0.207031ZM7.77985 8.53623L3.07737 11.8312H7.77985V8.53623ZM8.10204 8.50081L12.9417 11.8312H8.10204V8.50081ZM12.6311 3.23732H8.10256V0.669131L12.6311 3.23732ZM7.78037 3.23732V0.671213L3.32342 3.23732H7.78037ZM3.24737 12.1534H7.77985V15.2091L3.24737 12.1534ZM12.7074 12.1534L8.10204 15.2117V12.1534H12.7074Z" fill="black"/>
</svg>
