<svg xmlns="http://www.w3.org/2000/svg" viewBox="0 0 16 16"><path d="M15.8 14.7c.1.1.1.2.2.3v.6c0 .1-.1.2-.2.3-.1.1-.2.1-.3.2h-.6c-.1 0-.2-.1-.3-.2l-4.4-4.4c-.3.2-.6.4-.8.6-.3.2-.6.3-1 .4-.3.1-.7.2-1 .3-.4.1-.7.1-1.1.1-.9 0-1.7-.2-2.5-.5s-1.4-.8-2-1.4C1.2 10.4.7 9.8.4 9S0 7.2 0 6.3c0-.9.2-1.7.5-2.5s.8-1.4 1.4-2c.6-.6 1.2-1.1 2-1.4S5.5 0 6.3 0c.9 0 1.7.2 2.5.5s1.4.8 2 1.4c.6.6 1 1.2 1.4 2s.5 1.6.5 2.5c0 .4 0 .7-.1 1.1-.1.4-.2.7-.3 1-.1.4-.2.7-.4 1-.2.3-.4.6-.6.8l4.5 4.4zM1.6 6.3c0 .7.1 1.3.4 1.9.2.6.6 1.1 1 1.5.4.4.9.8 1.5 1 .6.3 1.2.4 1.8.4.7 0 1.3-.1 1.9-.4.6-.2 1.1-.6 1.5-1 .4-.4.8-1 1-1.5.3-.6.4-1.2.4-1.9 0-.6-.1-1.3-.4-1.8s-.6-1.1-1-1.5c-.4-.4-1-.8-1.5-1-.6-.3-1.2-.4-1.9-.4-.6 0-1.3.1-1.8.4S3.4 2.5 3 3c-.4.4-.8.9-1 1.5-.3.6-.4 1.2-.4 1.8z"/></svg>
