<svg width="365" height="60" fill="none" xmlns="http://www.w3.org/2000/svg">
  <path d="M12.81 37h6.786c1.332 0 2.34-.27 3.114-.828.918-.684 1.476-1.818 1.476-3.276 0-1.53-.81-2.79-2.214-3.258v-.054c1.08-.504 1.602-1.314 1.602-2.61 0-1.116-.414-2.052-1.188-2.682-.684-.558-1.656-.864-2.916-.864h-6.66V37zm3.672-8.226v-2.412h2.322c.72 0 1.278.396 1.278 1.188 0 .81-.54 1.224-1.26 1.224h-2.34zm0 5.256v-2.844h2.664c.774 0 1.44.468 1.44 1.422 0 .918-.612 1.422-1.422 1.422h-2.682zM25.076 37h3.492V23.428h-3.492V37zm9.46.306c3.06 0 5.005-2.052 5.005-5.13 0-3.06-1.944-5.13-5.004-5.13-3.06 0-5.04 2.07-5.04 5.13 0 3.078 1.98 5.13 5.04 5.13zm-.035-2.358c-1.044 0-1.548-1.062-1.548-2.772 0-1.692.504-2.754 1.548-2.754s1.584 1.062 1.584 2.754c0 1.71-.54 2.772-1.584 2.772zm10.723 2.358c3.06 0 5.004-2.052 5.004-5.13 0-3.06-1.944-5.13-5.004-5.13-3.06 0-5.04 2.07-5.04 5.13 0 3.078 1.98 5.13 5.04 5.13zm-.036-2.358c-1.044 0-1.548-1.062-1.548-2.772 0-1.692.504-2.754 1.548-2.754s1.584 1.062 1.584 2.754c0 1.71-.54 2.772-1.584 2.772zM51.162 37h3.402v-5.274c0-1.044.432-1.836 1.278-1.836.864 0 1.17.648 1.17 1.638V37h3.402v-5.274c0-1.044.432-1.836 1.278-1.836.864 0 1.17.648 1.17 1.638V37h3.402v-6.084c0-2.232-.972-3.888-3.222-3.888-1.188 0-2.214.396-3.006 1.71h-.054c-.468-1.098-1.386-1.71-2.61-1.71-1.386 0-2.268.612-2.916 1.818h-.054v-1.53h-3.24V37zm22.341.324c2.52 0 4.05-1.89 4.05-5.184 0-2.916-1.404-5.112-3.834-5.112-1.242 0-2.106.45-2.754 1.296h-.054v-4.896H67.51V37h3.24v-1.332h.036c.594 1.152 1.674 1.656 2.718 1.656zm-1.008-2.646c-1.044 0-1.71-1.026-1.71-2.574 0-1.566.666-2.574 1.71-2.574 1.026 0 1.602 1.008 1.602 2.574 0 1.566-.558 2.574-1.602 2.574zm10.733 2.592c2.43 0 4.14-1.08 4.716-3.258h-3.276c-.217.612-.739.846-1.333.846-1.025 0-1.62-.612-1.745-1.854h6.498c.036-1.98-.468-3.654-1.584-4.734-.847-.81-1.963-1.26-3.403-1.26-2.897 0-4.895 2.106-4.895 5.13 0 3.096 2.016 5.13 5.022 5.13zm-.054-7.956c.827 0 1.493.612 1.547 1.8h-3.15c.127-1.134.666-1.8 1.603-1.8zm9.091-1.998h-3.24V37h3.402v-4.05c0-2.178 1.17-3.132 3.24-2.772h.072v-2.97c-.09-.054-.288-.09-.576-.09-1.224 0-2.142.504-2.844 1.926h-.054v-1.728zm8.819 6.714c-.954 0-1.567-.936-1.567-2.232 0-1.314.613-2.178 1.567-2.178.99 0 1.566.972 1.566 2.178 0 1.278-.576 2.232-1.566 2.232zm0 6.21c1.368 0 2.574-.306 3.42-1.062.81-.72 1.35-1.926 1.35-3.474v-8.388h-3.24v1.134h-.054c-.522-.9-1.314-1.422-2.61-1.422-2.25 0-3.745 2.16-3.745 4.932 0 3.024 1.819 4.536 3.907 4.536 1.062 0 1.782-.45 2.322-1.152h.072v.81c0 1.008-.378 1.692-1.476 1.692-.81 0-1.243-.36-1.368-.756h-3.277c.325 2.124 2.124 3.15 4.699 3.15zM148.671 10c9.094.653 14.226 6.625 15.015 13.953h-9.524a6.92 6.92 0 00-5.491-5.921V10zm0 32.083a6.853 6.853 0 005.742-6.244h9.546c-.538 7.378-6.079 13.637-15.288 14.161v-7.917zM128.05 28.087c.761-10.048 7.537-17.384 17.176-18.087v7.967c-4.63.754-7.005 4.737-7.429 10.12h-9.747zM145.226 50c-10.049-.861-16.702-8.548-17.226-18.84h9.776c.208 5.834 3.057 10.048 7.486 10.923L145.226 50zM176.929 28.087V10.703h-9.525v17.384h9.525zm-9.525 21.102h9.525V31.13h-9.525V49.19zM191.678 21.843v27.346h9.532V21.843h-9.532zm20.815-3.065v-8.075h-32.012v8.075h32.012zM233.021 22.517l5.957-11.814h10.049l-11.355 21.102-4.651-9.288zm-6.517 12.489l-13.02-24.303h10.422l12.201 24.332v14.154h-9.603V35.006zM264.673 41.114h13.889v8.075h-13.889v-8.075zm-3.387-9.984V49.19h-9.532V31.13h9.532zm-9.532-20.427h9.532v17.384h-9.532V10.703zM307.523 49.189h10.012l-6.459-18.03h-9.905l6.352 18.03zm2.426-21.102l-6.302-17.384h-9.632l6.079 17.384h9.855zm-19.221 14.965h11.412l-2.692-7.615h-6.51l-2.21 7.615zm5.742-16.257l-4.379-12.431-12.058 34.825h9.582l6.855-22.394zM333.146 41.545h5.024c3.173 0 5.06-1.508 5.06-4.25 0-3.122-2.21-4.363-5.167-4.363h-4.917v-7.544h4.249c2.749 0 4.637-1.076 4.637-3.589 0-2.512-1.78-3.588-4.58-3.588h-4.306v-7.508h5.656c4.034 0 6.89.97 8.986 2.634a8.917 8.917 0 013.338 7.379c0 3.875-1.938 6.244-5.384 7.536v.158a9.413 9.413 0 016.891 9.424c0 3.876-1.436 6.675-3.926 8.613-2.369 1.83-5.491 2.742-9.475 2.742h-6.086v-7.644zm-3.388 7.644h-9.531V31.13h9.531V49.19zm-9.531-21.102V10.703h9.531v17.384h-9.531z" fill="#000"/>
  <path stroke="#FF6200" stroke-width="2" d="M1 1h363v58H1zM118 5v50"/>
</svg>
